<?xml version="1.0" encoding="utf-8"?>

<svg version="1.1" id="Layer_1" xmlns="http://www.w3.org/2000/svg" xmlns:xlink="http://www.w3.org/1999/xlink" x="0px" y="0px"
	 viewBox="0 0 612 792" style="enable-background:new 0 0 612 792;" xml:space="preserve">
<style type="text/css">
	.st0{fill:#CCCCCC;}
	.st1{fill:#660033;}
	.st2{fill:#FFFFFF;}
	.st3{fill:#FFCC99;}
</style>
<g>
	<g>
		<path class="st0" d="M142.71,600.42c0-17.58,6.48-44.88,10.64-63.39c1.16-5.32,2.31-10.41,3.47-15.04
			c9.25-43.03,24.06-77.5,29.84-83.51c18.74,1.62,35.16-2.31,49.04-12.03c41.64-29.15,52.05-101.56,58.07-154.54
			c1.16-11.8,2.31-21.98,3.7-30.31c0.46-0.93,0.93-1.85,1.39-3.01c4.4-17.58-36.09-32.62-53.67-38.63l0,0
			c-33.54-10.64-100.17-21.28-110.58-3.93c0,0.23-0.23,0.46-0.46,0.69l0,0c-0.93,1.39-1.16,3.01-1.62,4.63
			c-3.47,11.8-7.4,23.83-11.57,36.32c-18.28,55.52-40.02,112.66-16.89,153.84c8.56,15.5,21.98,27.07,41.41,35.4
			c0.23,0,0.46,0.23,0.69,0.46c5.55,3.01,7.63,38.4-8.1,93.69c-2.08,6.94-3.93,15.04-5.78,23.6c-3.7,15.27-8.79,36.09-14.57,49.28
			c-17.81-4.16-45.57-6.01-59.45,3.01c-4.63,3.01-7.63,7.17-8.56,12.03c-1.16,4.16-0.46,8.56,1.62,12.72
			c6.48,11.34,26.6,21.28,68.01,32.62h0.23l0,0c40.25,8.33,65.47,6.01,74.72-7.17c0-0.23,0-0.23,0.23-0.46
			c2.54-4.4,3.01-9.48,0.93-14.57C188.98,618.69,164.92,606.43,142.71,600.42z"/>
		<path d="M142.71,599.26c0-17.58,6.48-44.88,10.64-63.39c1.16-5.32,2.31-10.41,3.47-15.04c9.25-43.03,24.06-77.5,29.84-83.51
			c18.74,1.62,35.16-2.31,49.04-12.03c41.64-29.15,52.05-101.56,58.07-154.54c1.16-11.8,2.31-21.98,3.7-30.31
			c0.46-0.93,0.93-1.85,1.39-3.01c4.4-17.58-36.09-32.62-53.67-38.63l0,0c-33.54-10.64-100.17-21.28-110.58-3.93
			c0,0.23-0.23,0.46-0.46,0.69l0,0c-0.93,1.39-1.16,3.01-1.62,4.63c-3.47,11.8-7.4,23.83-11.57,36.32
			c-18.28,55.52-40.02,112.66-16.89,153.84c8.56,15.5,21.98,27.07,41.41,35.4c0.23,0,0.46,0.23,0.69,0.46
			c5.55,3.01,7.63,38.4-8.1,93.69c-2.08,6.94-3.93,15.04-5.78,23.6c-3.7,15.27-8.79,36.09-14.57,49.28
			c-17.81-4.16-45.57-6.01-59.45,3.01c-4.63,3.01-7.63,7.17-8.56,12.03c-1.16,4.16-0.46,8.56,1.62,12.72
			c6.48,11.34,26.6,21.28,68.01,32.62h0.23l0,0c40.25,8.33,65.47,6.01,74.72-7.17c0-0.23,0-0.23,0.23-0.46
			c2.54-4.4,3.01-9.48,0.93-14.57C189.21,617.54,164.92,605.28,142.71,599.26z M219.75,203.9c7.17,1.62,14.34,3.47,21.75,5.78
			c31.23,10.18,43.49,20.13,45.81,24.29c0,0.46-0.46,0.69-0.46,1.16c-3.47,2.08-18.74,7.4-77.27-2.78
			c-49.28-12.96-62.69-22.21-65.01-27.76c-0.23-0.46-0.46-1.16-0.23-1.62s0.46-1.62,0.69-2.31
			C149.19,195.8,182.5,195.34,219.75,203.9z M114.02,385.04c-20.59-36.78,0.23-91.38,17.81-144.82c2.78-8.1,5.32-15.96,7.87-23.6
			c8.1,7.17,25.68,15.73,67.32,26.6h0.23h0.23c15.73,2.54,55.75,9.72,77.27,4.16c-0.69,6.48-1.62,13.65-2.54,21.28
			c-5.55,48.12-15.96,120.07-53.21,146.44c-11.8,8.33-26.14,11.8-42.8,9.95c-0.23,0-0.46,0-0.93-0.23c-3.7-0.46-7.87-1.16-11.8-2.31
			C143.64,416.27,124.2,403.78,114.02,385.04z M170.93,434.55c0.23,0,0.46,0,0.69,0.23c0.69,0.23,1.62,0.46,2.31,0.46
			c-2.78,4.63-6.25,11.34-10.18,21.75c-1.16,2.78-2.31,5.55-3.24,8.79c0.23-3.24,0.69-6.25,0.69-9.02
			c0.69-10.18,0.23-18.51-0.93-24.98C163.76,432.7,167,433.62,170.93,434.55z M184.35,639.98c-9.25,12.26-49.97,4.86-62.69,2.31
			c-35.63-9.72-56.22-18.74-60.84-26.84c-0.93-1.39-0.93-2.78-0.46-4.16c0-0.23,0-0.46,0.23-0.69c0.23-1.16,0.69-3.01,3.47-4.63
			c8.56-5.55,29.61-5.55,46.73-2.31c-0.93,1.16-2.08,1.85-3.24,2.31s-2.31,0.69-4.4-0.23c-2.78-1.39-6.25-0.23-7.63,2.54
			c-1.39,2.78-0.23,6.25,2.54,7.63c1.16,0.69,2.78,1.16,4.16,1.39c3.47,0.69,6.94,0.46,10.18-0.93c8.33-3.93,14.11-14.81,19.2-29.15
			c-0.46,5.32-0.69,9.95-0.46,14.57v0.23c-0.23,1.39,0,2.54,0.46,3.7c0.69,6.94,2.54,12.49,6.01,16.43c1.62,1.85,4.4,3.93,8.1,4.63
			c2.08,0.46,4.4,0.46,7.17,0.23c3.24-0.46,5.32-3.24,5.09-6.48c-0.46-3.24-3.24-5.32-6.48-5.09c-3.24,0.46-4.4-0.46-5.09-1.39
			c-0.69-0.69-1.16-1.62-1.85-2.78c18.97,6.01,36.32,16.43,40.02,24.52C185.05,638.36,184.81,639.51,184.35,639.98z"/>
		<path class="st1" d="M273.19,311.01l2.31-21.05c-23.37-8.33-34.7,20.36-89.53-13.42c-27.07-16.66-50.2-23.37-54.36-18.51l0,0v0.23
			c-0.46,0.69-0.46,1.16-0.69,1.85c-35.16,90.45-26.37,143.43,45.34,159.86C245.19,432,268.33,353.81,273.19,311.01z"/>
		<path class="st2" d="M122.35,352.19c-0.46,8.33-0.69,18.04,4.86,24.06c3.7,2.78,34.01,23.6,31.69,11.57
			c-2.78-7.63-11.57-11.1-16.66-17.58c-14.57-13.88,8.1-56.45-9.72-49.51C121.89,325.35,123.05,343.17,122.35,352.19z M142.83,299.1
			c-11.1-1.16-8.68,14,1.04,9.6C147.41,306.91,146.94,299.68,142.83,299.1z M151.34,242.42c-12.26-2.54-10.94,17-14.41,24.4
			c-3.47,7.17-0.23,21.98,9.72,17.35C151.02,281.8,156.27,243.35,151.34,242.42z"/>
	</g>
	<g>
		<path class="st0" d="M496.66,536.04c-8.33-15.5-15.27-42.57-20.13-60.84c-1.39-5.32-2.78-10.18-3.93-15.04
			c-11.8-42.34-15.04-79.81-12.72-87.91c17.35-7.4,30.07-18.51,37.71-33.54c23.13-45.11-1.39-114.05-20.82-163.79
			c-4.4-11.1-8.1-20.59-10.64-28.45c0-0.93,0-2.08-0.23-3.24c-4.16-17.58-46.96-12.03-65.47-9.02l0,0
			c-34.7,6.25-98.55,27.99-99.71,48.35c0,0.23,0,0.46,0,0.69l0,0c0,1.62,0.46,3.24,0.93,4.86c2.54,12.03,4.63,24.29,6.71,37.48
			c9.72,57.84,17.35,118.21,57.14,143.89c14.81,9.72,32.16,13.65,52.98,11.8c0.23,0,0.46,0,0.69,0c6.25,0,24.75,30.54,36.55,86.75
			c1.39,6.94,3.47,15.04,5.78,23.6c3.93,15.27,9.02,35.86,10.18,50.43c-17.58,4.63-43.03,16.19-51.13,30.54
			c-2.78,4.86-3.24,9.95-1.85,14.57c0.93,4.4,3.47,7.87,7.4,10.41c11.1,7.17,33.54,6.25,75.42-3.01h0.23l0,0
			c39.56-11.57,60.84-25.45,62.69-41.18c0-0.23,0-0.23,0-0.46c0.23-5.09-1.62-9.95-6.01-13.19
			C546.17,530.72,519.1,530.95,496.66,536.04z"/>
		<path d="M496.66,536.11c-8.33-15.5-15.27-42.57-20.13-60.84c-1.39-5.32-2.78-10.18-3.93-15.04
			c-11.8-42.34-15.04-79.81-12.72-87.91c17.35-7.4,30.07-18.51,37.71-33.54c23.13-45.11-1.39-114.05-20.82-163.79
			c-4.4-11.1-8.1-20.59-10.64-28.45c0-0.93,0-2.08-0.23-3.24c-4.16-17.58-46.96-12.03-65.47-9.02l0,0
			c-34.7,6.25-98.55,27.99-99.71,48.35c0,0.23,0,0.46,0,0.69l0,0c0,1.62,0.46,3.24,0.93,4.86c2.54,12.03,4.63,24.29,6.71,37.48
			c9.72,57.84,17.35,118.21,57.14,143.89c14.81,9.72,32.16,13.65,52.98,11.8c0.23,0,0.46,0,0.69,0c6.25,0,24.75,30.54,36.55,86.75
			c1.39,6.94,3.47,15.04,5.78,23.6c3.93,15.27,9.02,35.86,10.18,50.43c-17.58,4.63-43.03,16.19-51.13,30.54
			c-2.78,4.86-3.24,9.95-1.85,14.57c0.93,4.4,3.47,7.87,7.4,10.41c11.1,7.17,33.54,6.25,75.42-3.01h0.23l0,0
			c39.56-11.57,60.84-25.45,62.69-41.18c0-0.23,0-0.23,0-0.46c0.23-5.09-1.62-9.95-6.01-13.19
			C546.17,530.78,518.87,531.25,496.66,536.11z M379.83,150.69c7.17-1.85,14.34-3.7,21.98-4.86c32.39-5.55,47.89-2.54,51.82,0
			c0.23,0.46,0,0.69,0,1.16c-2.08,3.47-13.19,15.27-69.63,33.78c-49.51,11.57-65.7,9.72-70.56,6.01c-0.23-0.46-0.93-0.69-1.16-1.39
			c-0.23-0.69-0.46-1.62-0.46-2.31C313.67,176.6,343.05,160.64,379.83,150.69z M371.04,360.29c-35.4-22.9-42.57-80.74-51.82-136.26
			c-1.39-8.56-2.78-16.43-4.16-24.52c10.41,2.54,30.07,2.08,71.95-8.1h0.23h0.23c15.27-5.09,53.67-17.58,70.33-32.39
			c2.31,6.01,4.86,12.72,7.63,19.9c17.58,45.11,41.87,113.59,21.28,154.3c-6.48,12.96-17.58,22.67-33.31,28.69
			c-0.23,0-0.46,0.23-0.93,0.23c-3.47,1.39-7.4,2.78-11.57,3.47C411.99,373.94,388.86,372.08,371.04,360.29z M444.38,377.41
			c0.23,0,0.46-0.23,0.69-0.23c0.69-0.23,1.62-0.46,2.31-0.69c-0.23,5.32-0.23,12.95,1.16,23.83c0.23,3.01,0.69,6.01,1.39,9.25
			c-1.39-3.01-2.31-5.78-3.7-8.33c-4.16-9.48-8.56-16.43-12.49-21.51C437.21,379.26,440.68,378.56,444.38,377.41z M552.65,552.76
			c-2.31,15.27-41.87,27.76-54.37,31.23c-36.09,8.1-58.53,9.72-66.39,4.63c-1.39-0.93-2.31-2.08-2.31-3.47
			c0-0.23-0.23-0.46-0.23-0.69c-0.23-1.16-0.69-3.01,0.93-5.78c5.09-9.02,23.37-18.74,40.25-24.06c-0.23,1.62-0.93,2.54-1.62,3.47
			s-1.62,1.62-4.16,1.85c-3.01,0-5.78,2.78-5.55,5.78c0,3.01,2.78,5.78,5.78,5.55c1.39,0,3.01-0.23,4.4-0.69
			c3.24-0.93,6.48-3.01,8.56-5.55c5.55-7.17,5.55-19.66,3.47-34.7c2.08,4.86,4.16,9.25,6.48,13.19v0.23
			c0.46,1.39,1.16,2.31,2.08,3.01c3.93,5.78,8.1,9.72,12.95,11.57c2.31,0.69,5.55,1.39,9.48,0.23c2.08-0.46,4.16-1.62,6.25-3.24
			c2.54-1.85,3.01-5.32,1.39-8.1c-1.85-2.54-5.32-3.01-8.1-1.39c-2.54,1.85-4.16,1.62-5.09,1.16c-0.93-0.23-1.85-0.93-2.78-1.62
			c19.66-3.47,39.79-2.54,46.73,3.01C552.18,550.91,552.65,552.07,552.65,552.76z"/>
		<path class="st3" d="M477.23,220.56l-7.63-19.66c-24.75,3.47-21.28,34.24-85.36,30.07c-31.69-2.08-55.29,2.78-56.68,9.02l0,0v0.23
			c0,0.69,0,1.16,0.23,1.85c11.1,96.47,43.72,139.27,114.74,120.07C508.92,340.62,492.96,260.58,477.23,220.56z"/>
		<path class="st2" d="M363.18,327.44c3.47,7.63,7.63,16.43,15.73,18.97c4.4,0.69,41.18,5.09,33.54-4.63
			c-6.01-5.55-15.27-4.63-22.9-7.87c-19.43-5.32-19.2-53.67-31.69-39.1C350.22,303.84,359.71,319.11,363.18,327.44z M356.47,270.99
			c-10.41,4.16-1.16,16.43,5.32,8.1C365.16,271.9,358.98,269.92,356.47,270.99 M337.96,216.86c-12.03,3.47-2.08,19.9-1.62,28.22
			c0.23,8.1,9.95,19.66,16.89,10.87C350.92,242.77,344.89,215.39,337.96,216.86z"/>
	</g>
</g>
</svg>
